<?xml version="1.0" standalone="no"?>
<!DOCTYPE svg PUBLIC "-//W3C//DTD SVG 20010904//EN"
 "http://www.w3.org/TR/2001/REC-SVG-20010904/DTD/svg10.dtd">
<svg version="1.0" xmlns="http://www.w3.org/2000/svg"
 width="512.000000pt" height="512.000000pt" viewBox="0 0 512.000000 512.000000"
 preserveAspectRatio="xMidYMid meet">
<metadata>
Created by potrace 1.11, written by Peter Selinger 2001-2013
</metadata>
<g transform="translate(0.000000,512.000000) scale(0.100000,-0.100000)"
fill="#000000" stroke="none">
<path d="M2275 5108 c-228 -18 -495 -68 -715 -135 -148 -44 -180 -61 -207
-109 -39 -68 -25 -146 36 -197 48 -40 92 -44 180 -17 367 111 634 152 991 152
357 0 624 -41 991 -152 88 -27 132 -23 180 17 61 51 75 129 36 197 -27 48 -59
65 -207 109 -403 122 -861 170 -1285 135z"/>
<path d="M2325 4489 c-274 -24 -621 -107 -676 -161 -63 -63 -63 -157 0 -219
56 -56 86 -58 249 -15 464 121 882 122 1350 5 121 -31 123 -31 168 -14 91 34
129 138 82 219 -31 54 -63 70 -203 105 -314 80 -649 107 -970 80z"/>
<path d="M1735 3531 c-49 -23 -89 -64 -109 -113 -14 -33 -16 -214 -16 -1643 0
-1429 2 -1610 16 -1643 20 -49 60 -90 109 -113 38 -18 82 -19 825 -19 743 0
787 1 825 19 49 23 89 64 109 113 14 33 16 214 16 1643 0 1429 -2 1610 -16
1643 -20 49 -60 90 -109 113 -38 18 -82 19 -825 19 -743 0 -787 -1 -825 -19z
m425 -541 l0 -130 -130 0 -130 0 0 130 0 130 130 0 130 0 0 -130z m270 -888
l0 -129 -74 -36 c-98 -49 -176 -127 -222 -223 l-35 -74 -130 0 c-100 0 -129 3
-129 13 0 31 35 127 71 198 84 162 224 285 398 350 127 47 121 51 121 -99z
m378 99 c176 -64 316 -186 401 -350 36 -71 71 -167 71 -198 0 -10 -29 -13
-129 -13 l-130 0 -35 74 c-46 96 -124 174 -222 223 l-74 36 0 129 c0 150 -6
145 118 99z m-162 -516 c142 -71 143 -275 2 -344 -182 -88 -359 118 -246 285
28 41 108 84 158 84 20 0 58 -11 86 -25z m-507 -378 c52 -110 156 -202 274
-241 15 -5 17 -21 17 -140 l0 -134 -42 10 c-167 37 -345 163 -443 312 -39 60
-87 172 -100 234 l-7 32 134 0 133 0 34 -73z m1136 41 c-4 -18 -19 -65 -34
-104 -82 -213 -288 -393 -509 -442 l-42 -10 0 134 c0 119 2 135 18 140 117 39
221 131 273 241 l34 73 133 0 134 0 -7 -32z"/>
</g>
</svg>
