<?xml version="1.0" standalone="no"?>
<!DOCTYPE svg PUBLIC "-//W3C//DTD SVG 20010904//EN"
 "http://www.w3.org/TR/2001/REC-SVG-20010904/DTD/svg10.dtd">
<svg version="1.0" xmlns="http://www.w3.org/2000/svg"
 width="512.000000pt" height="512.000000pt" viewBox="0 0 512.000000 512.000000"
 preserveAspectRatio="xMidYMid meet">
<metadata>
Created by potrace 1.11, written by Peter Selinger 2001-2013
</metadata>
<g transform="translate(0.000000,512.000000) scale(0.100000,-0.100000)"
fill="#000000" stroke="none">
<path d="M2300 5109 c-171 -15 -221 -22 -350 -45 -221 -40 -498 -117 -545
-151 -42 -31 -62 -89 -56 -165 2 -32 70 -97 109 -105 54 -10 51 -11 132 14
169 52 401 105 515 118 33 4 62 9 65 10 41 24 739 24 780 0 3 -1 32 -6 65 -10
33 -3 103 -16 155 -27 52 -11 113 -24 135 -28 22 -5 99 -26 171 -48 176 -52
216 -46 280 44 34 49 16 151 -35 192 -36 29 -159 68 -361 116 -58 14 -121 28
-140 31 -19 3 -42 8 -50 10 -22 6 -110 18 -255 36 -106 13 -507 18 -615 8z"/>
<path d="M2448 4505 c-2 -1 -49 -5 -105 -9 -197 -13 -571 -92 -653 -138 -56
-31 -75 -64 -75 -130 0 -63 19 -97 75 -135 39 -27 66 -28 140 -8 80 22 299 73
342 79 46 7 110 15 204 24 83 9 353 8 439 -2 71 -8 142 -17 170 -22 11 -2 47
-9 80 -14 33 -6 103 -22 155 -36 52 -14 109 -27 125 -30 38 -6 111 31 139 69
24 32 31 118 13 151 -22 40 -70 76 -121 90 -155 44 -311 76 -446 91 -30 3 -73
8 -95 11 -40 6 -382 13 -387 9z"/>
<path d="M1765 3558 c-47 -17 -84 -47 -113 -92 l-27 -41 0 -1615 0 -1615 27
-41 c27 -43 61 -71 110 -92 38 -16 1521 -17 1581 -1 60 16 106 54 133 113 l23
51 1 1575 c0 1414 -2 1580 -16 1627 -18 57 -50 93 -109 122 -39 19 -65 20
-810 20 -516 -1 -780 -4 -800 -11z m390 -420 c6 -6 10 -150 6 -233 -1 -20 -22
-22 -241 -15 -13 0 -15 21 -16 128 l0 128 122 0 c67 -1 126 -4 129 -8z m275
-1001 l0 -132 -67 -32 c-102 -47 -182 -131 -232 -240 l-24 -52 -129 0 -130 1
7 36 c10 53 61 173 98 228 90 136 221 237 376 291 53 18 97 33 99 33 1 0 2
-60 2 -133z m375 97 c202 -71 367 -239 439 -447 40 -115 47 -108 -105 -105
l-131 3 -21 50 c-52 121 -157 218 -279 259 -16 5 -18 20 -18 137 l0 131 33 -5
c17 -3 55 -13 82 -23z m-182 -500 c39 -11 87 -54 108 -97 43 -82 13 -194 -64
-245 -34 -23 -52 -27 -107 -27 -84 0 -136 31 -170 99 -76 157 66 321 233 270z
m-479 -388 c53 -99 120 -167 213 -213 l73 -36 0 -129 0 -130 -32 7 c-148 30
-316 138 -409 262 -61 81 -121 204 -134 275 -8 44 -9 43 144 42 l105 0 40 -78z
m1123 70 c10 -10 -18 -101 -57 -181 -67 -137 -190 -264 -320 -330 -49 -25
-165 -65 -187 -65 -10 0 -13 28 -13 128 l0 129 73 36 c43 21 93 57 124 88 51
51 113 151 113 182 0 12 13 17 48 19 70 4 213 1 219 -6z"/>
</g>
</svg>
